<svg xmlns="http://www.w3.org/2000/svg" width="14" height="16.003" viewBox="0 0 14 16.003"><defs><style>.a{fill:#2e2e2e;}</style></defs><g transform="translate(-1075 -218)"><g transform="translate(1074.109 217.879)"><path class="a" d="M11.451,17.529H4.977A2.363,2.363,0,0,1,2.618,15.17V7.934a.4.4,0,1,1,.8,0V15.17a1.562,1.562,0,0,0,1.559,1.559h6.474a1.562,1.562,0,0,0,1.559-1.559V7.934a.4.4,0,0,1,.8,0V15.17a2.39,2.39,0,0,1-2.359,2.359Z" transform="translate(-0.328 -1.406)"/><path class="a" d="M13.246,2.09H10.21a2.35,2.35,0,0,0-4.638,0H2.53A1.621,1.621,0,0,0,.891,3.729a1.588,1.588,0,0,0,1.639,1.6H13.29a1.621,1.621,0,0,0-.04-3.242ZM7.888.93a1.5,1.5,0,0,1,1.48,1.16h-3A1.583,1.583,0,0,1,7.888.93Zm5.358,3.6H2.53a.84.84,0,0,1,0-1.679H13.29a.844.844,0,0,1,.84.84.881.881,0,0,1-.883.84Z" transform="translate(0)"/><path class="a" d="M5.977,15.7a.378.378,0,0,1-.4-.4V8.625a.4.4,0,1,1,.8,0V15.3a.43.43,0,0,1-.4.4Z" transform="translate(-0.889 -1.537)"/><path class="a" d="M12.886,15.7a.378.378,0,0,1-.4-.4V8.625a.4.4,0,0,1,.8,0V15.3a.43.43,0,0,1-.4.4Z" transform="translate(-2.199 -1.537)"/><path class="a" d="M9.431,15.7a.378.378,0,0,1-.4-.4V8.625a.4.4,0,0,1,.8,0V15.3a.43.43,0,0,1-.4.4Z" transform="translate(-1.544 -1.537)"/></g></g></svg>