<svg xmlns="http://www.w3.org/2000/svg" width="13.421" height="18.102" viewBox="0 0 13.421 18.102"><defs><style>.a{fill:rgba(46,46,46,0.9);}.b{fill:none;stroke:#424343;}</style></defs><g transform="translate(-1272 -1131)"><g transform="translate(1269.431 1127.668)"><path class="a" d="M15.134,18.746c0,.881-.528,1.624-1.178,1.624H4.532c-.65,0-1.178-.743-1.178-1.624V5.967c0-.881.528-1.571,1.178-1.571h5.5V3.332h-5.5C3.45,3.332,2.569,4.5,2.569,5.968V18.746c0,1.468.881,2.688,1.963,2.688h9.424c1.083,0,1.963-1.221,1.963-2.688L15.99,6.133H15.2l-.071,12.613Z" transform="translate(0)"/><path class="b" d="M12.147,3.66s.3,3.609,6.363,2.969" transform="translate(-2.67)"/></g><g transform="translate(-116.5 896.102)"><line class="b" y2="8.602" transform="translate(1395.5 239.898)"/><path class="b" d="M1391.588,244.725l3.03,2.32,2.792-2.32" transform="translate(0.912 1.23)"/></g></g></svg>