<svg id="email" xmlns="http://www.w3.org/2000/svg" width="512" height="512" viewBox="0 0 512 512">
  <g id="Group_3" data-name="Group 3">
    <g id="Group_2" data-name="Group 2">
      <path id="Path_20" data-name="Path 20" d="M482.62,137.975l-8.533-5.709a8.537,8.537,0,1,0-9.506,14.182l8.823,5.888c13.679,8.4,21.53,24.422,21.53,43.93V469.333a25.325,25.325,0,0,1-25.6,25.6H42.667a25.33,25.33,0,0,1-25.6-25.6V196.267c0-15.479,6.63-35.046,21.811-44.109l8.533-5.709a8.532,8.532,0,1,0-9.489-14.182l-8.158,5.47C11.682,148.506,0,171.477,0,196.267V469.334A42.21,42.21,0,0,0,42.667,512H469.334A42.21,42.21,0,0,0,512,469.333V196.267C512,170.692,501.18,149.385,482.62,137.975Z" fill="#4dc8f7"/>
      <path id="Path_21" data-name="Path 21" d="M156.493,351.693,37.385,445.56a8.537,8.537,0,0,0,10.564,13.414l119.108-93.867a8.537,8.537,0,0,0-10.564-13.414Z" fill="#4dc8f7"/>
      <path id="Path_22" data-name="Path 22" d="M355.14,351.693a8.532,8.532,0,1,0-10.547,13.415L464.06,458.975a8.532,8.532,0,0,0,10.547-13.415Z" fill="#4dc8f7"/>
      <path id="Path_24" data-name="Path 24" d="M35.874,208.171a8.538,8.538,0,0,0,1.621,11.955L224.512,362.419c1.579,1.331,15.812,13.047,31.13,13.047,15.386,0,29.739-11.281,31.121-12.416L474.5,220.117a8.528,8.528,0,1,0-10.334-13.568L443.733,222.1V42.667C443.733,19.541,424.192,0,401.067,0H110.933C87.808,0,68.267,19.541,68.267,42.667V222.089L47.83,206.541A8.532,8.532,0,0,0,35.874,208.171Zm49.459-165.5c0-13.636,11.964-25.6,25.6-25.6H401.066c13.636,0,25.6,11.964,25.6,25.6V235.094L276.241,349.628c-3.038,2.441-12.672,8.772-20.6,8.772-7.7,0-17.109-6.5-20.437-9.276L85.333,235.076Z" transform="translate(-0.133)" fill="#4dc8f7"/>
      <g id="Group_4" data-name="Group 4" transform="translate(40)">
        <circle id="Ellipse_3167" data-name="Ellipse 3167" cx="13.5" cy="13.5" r="13.5" transform="translate(130 131)" fill="#4dc8f7"/>
        <circle id="Ellipse_3168" data-name="Ellipse 3168" cx="13.5" cy="13.5" r="13.5" transform="translate(178 131)" fill="#4dc8f7"/>
        <circle id="Ellipse_3169" data-name="Ellipse 3169" cx="13.5" cy="13.5" r="13.5" transform="translate(226 131)" fill="#4dc8f7"/>
        <circle id="Ellipse_3170" data-name="Ellipse 3170" cx="13.5" cy="13.5" r="13.5" transform="translate(274 131)" fill="#4dc8f7"/>
      </g>
    </g>
  </g>
</svg>
